<svg xmlns="http://www.w3.org/2000/svg" height="24" viewBox="0 -960 960 960" width="24" fill="#00aeef">
    <path d="M771-593 630-734l-85 84-85-84 113-114q12-12 27-17.5t30-5.5q16 0 30.5 5.5T686-848l85 85q18 17 26.5 39.5T806-678t-8.5 45-26.5 40M220-409q-18-18-18-42.5t18-42.5l98-99 85 85-99 99q-17 18-41.5 18T220-409m-43 297q-11-12-17-26.5t-6-30.5 5.5-30.5T177-226l283-282-127-128q-18-17-18-41.5t18-42.5q17-18 42-18t43 18l127 127 57-57 112 114q12 12 12 28t-12 28-28 12-28-12L290-112q-12 12-26.5 17.5T234-89t-30-6-27-17"/>
</svg>